<mxfile host="app.diagrams.net" modified="2024-06-02T18:47:24.299Z" agent="Mozilla/5.0 (Windows NT 10.0; Win64; x64) AppleWebKit/537.36 (KHTML, like Gecko) Chrome/125.0.0.0 Safari/537.36" etag="piOjRM-JIueJWvnmLq-F" version="24.4.13" type="device">
  <diagram name="Trang-1" id="AGSE9PNRK12F3VKaibQl">
    <mxGraphModel dx="1226" dy="557" grid="1" gridSize="10" guides="1" tooltips="1" connect="1" arrows="1" fold="1" page="1" pageScale="1" pageWidth="827" pageHeight="1169" math="0" shadow="0">
      <root>
        <mxCell id="0" />
        <mxCell id="1" parent="0" />
        <mxCell id="llRQ4Lv7INqdnd3uitMZ-5" value="Class Bowl" style="swimlane;fontStyle=1;align=center;verticalAlign=top;childLayout=stackLayout;horizontal=1;startSize=26;horizontalStack=0;resizeParent=1;resizeParentMax=0;resizeLast=0;collapsible=1;marginBottom=0;whiteSpace=wrap;html=1;" vertex="1" parent="1">
          <mxGeometry x="190" y="80" width="200" height="150" as="geometry" />
        </mxCell>
        <mxCell id="llRQ4Lv7INqdnd3uitMZ-6" value="&lt;font style=&quot;font-size: 14px;&quot;&gt;- fruit:Fruit&amp;nbsp;//instance field&lt;/font&gt;" style="text;strokeColor=none;fillColor=none;align=left;verticalAlign=top;spacingLeft=4;spacingRight=4;overflow=hidden;rotatable=0;points=[[0,0.5],[1,0.5]];portConstraint=eastwest;whiteSpace=wrap;html=1;" vertex="1" parent="llRQ4Lv7INqdnd3uitMZ-5">
          <mxGeometry y="26" width="200" height="32" as="geometry" />
        </mxCell>
        <mxCell id="llRQ4Lv7INqdnd3uitMZ-7" value="" style="line;strokeWidth=1;fillColor=none;align=left;verticalAlign=middle;spacingTop=-1;spacingLeft=3;spacingRight=3;rotatable=0;labelPosition=right;points=[];portConstraint=eastwest;strokeColor=inherit;" vertex="1" parent="llRQ4Lv7INqdnd3uitMZ-5">
          <mxGeometry y="58" width="200" height="8" as="geometry" />
        </mxCell>
        <mxCell id="llRQ4Lv7INqdnd3uitMZ-8" value="&lt;font style=&quot;font-size: 14px;&quot;&gt;+ Bowl(Fruit)&lt;/font&gt;&lt;div&gt;&lt;span style=&quot;background-color: initial;&quot;&gt;&lt;font size=&quot;3&quot;&gt;+setFruit&lt;/font&gt;&lt;/span&gt;&lt;div&gt;&lt;font size=&quot;3&quot;&gt;+getFruit&lt;/font&gt;&lt;/div&gt;&lt;div&gt;&lt;font size=&quot;3&quot;&gt;+showMessage&lt;/font&gt;&lt;/div&gt;&lt;/div&gt;" style="text;strokeColor=none;fillColor=none;align=left;verticalAlign=top;spacingLeft=4;spacingRight=4;overflow=hidden;rotatable=0;points=[[0,0.5],[1,0.5]];portConstraint=eastwest;whiteSpace=wrap;html=1;" vertex="1" parent="llRQ4Lv7INqdnd3uitMZ-5">
          <mxGeometry y="66" width="200" height="84" as="geometry" />
        </mxCell>
        <mxCell id="llRQ4Lv7INqdnd3uitMZ-10" value="Association" style="rounded=1;whiteSpace=wrap;html=1;" vertex="1" parent="1">
          <mxGeometry x="30" y="113" width="120" height="60" as="geometry" />
        </mxCell>
        <mxCell id="llRQ4Lv7INqdnd3uitMZ-11" value="Class Fruit" style="swimlane;fontStyle=1;align=center;verticalAlign=top;childLayout=stackLayout;horizontal=1;startSize=26;horizontalStack=0;resizeParent=1;resizeParentMax=0;resizeLast=0;collapsible=1;marginBottom=0;whiteSpace=wrap;html=1;" vertex="1" parent="1">
          <mxGeometry x="510" y="80" width="200" height="150" as="geometry" />
        </mxCell>
        <mxCell id="llRQ4Lv7INqdnd3uitMZ-12" value="&lt;font style=&quot;font-size: 14px;&quot;&gt;+name: String&lt;/font&gt;" style="text;strokeColor=none;fillColor=none;align=left;verticalAlign=top;spacingLeft=4;spacingRight=4;overflow=hidden;rotatable=0;points=[[0,0.5],[1,0.5]];portConstraint=eastwest;whiteSpace=wrap;html=1;" vertex="1" parent="llRQ4Lv7INqdnd3uitMZ-11">
          <mxGeometry y="26" width="200" height="32" as="geometry" />
        </mxCell>
        <mxCell id="llRQ4Lv7INqdnd3uitMZ-13" value="" style="line;strokeWidth=1;fillColor=none;align=left;verticalAlign=middle;spacingTop=-1;spacingLeft=3;spacingRight=3;rotatable=0;labelPosition=right;points=[];portConstraint=eastwest;strokeColor=inherit;" vertex="1" parent="llRQ4Lv7INqdnd3uitMZ-11">
          <mxGeometry y="58" width="200" height="8" as="geometry" />
        </mxCell>
        <mxCell id="llRQ4Lv7INqdnd3uitMZ-14" value="&lt;span style=&quot;font-size: 14px;&quot;&gt;+Fruit(String name)&lt;/span&gt;&lt;div&gt;&lt;span style=&quot;font-size: 14px;&quot;&gt;+getName()&lt;/span&gt;&lt;/div&gt;&lt;div&gt;&lt;span style=&quot;font-size: 14px;&quot;&gt;+setName()&lt;/span&gt;&lt;/div&gt;&lt;div&gt;&lt;span style=&quot;font-size: 14px;&quot;&gt;message() void&lt;/span&gt;&lt;/div&gt;" style="text;strokeColor=none;fillColor=none;align=left;verticalAlign=top;spacingLeft=4;spacingRight=4;overflow=hidden;rotatable=0;points=[[0,0.5],[1,0.5]];portConstraint=eastwest;whiteSpace=wrap;html=1;" vertex="1" parent="llRQ4Lv7INqdnd3uitMZ-11">
          <mxGeometry y="66" width="200" height="84" as="geometry" />
        </mxCell>
        <mxCell id="llRQ4Lv7INqdnd3uitMZ-15" value="" style="endArrow=open;endFill=1;endSize=12;html=1;rounded=0;" edge="1" parent="1" source="llRQ4Lv7INqdnd3uitMZ-5" target="llRQ4Lv7INqdnd3uitMZ-11">
          <mxGeometry width="160" relative="1" as="geometry">
            <mxPoint x="280" y="200" as="sourcePoint" />
            <mxPoint x="440" y="200" as="targetPoint" />
          </mxGeometry>
        </mxCell>
        <mxCell id="llRQ4Lv7INqdnd3uitMZ-16" value="&lt;span style=&quot;color: rgb(0, 0, 0); font-family: Helvetica; font-size: 12px; font-style: normal; font-variant-ligatures: normal; font-variant-caps: normal; font-weight: 400; letter-spacing: normal; orphans: 2; text-align: center; text-indent: 0px; text-transform: none; widows: 2; word-spacing: 0px; -webkit-text-stroke-width: 0px; white-space: nowrap; background-color: rgb(251, 251, 251); text-decoration-thickness: initial; text-decoration-style: initial; text-decoration-color: initial; display: inline !important; float: none;&quot;&gt;-fruit&lt;/span&gt;" style="text;whiteSpace=wrap;html=1;" vertex="1" parent="1">
          <mxGeometry x="460" y="123" width="90" height="40" as="geometry" />
        </mxCell>
        <mxCell id="llRQ4Lv7INqdnd3uitMZ-17" value="Class Bowl" style="swimlane;fontStyle=1;align=center;verticalAlign=top;childLayout=stackLayout;horizontal=1;startSize=26;horizontalStack=0;resizeParent=1;resizeParentMax=0;resizeLast=0;collapsible=1;marginBottom=0;whiteSpace=wrap;html=1;" vertex="1" parent="1">
          <mxGeometry x="190" y="330" width="200" height="150" as="geometry" />
        </mxCell>
        <mxCell id="llRQ4Lv7INqdnd3uitMZ-18" value="&lt;font style=&quot;font-size: 14px;&quot;&gt;- fruit:Fruit&amp;nbsp;//instance field&lt;/font&gt;" style="text;strokeColor=none;fillColor=none;align=left;verticalAlign=top;spacingLeft=4;spacingRight=4;overflow=hidden;rotatable=0;points=[[0,0.5],[1,0.5]];portConstraint=eastwest;whiteSpace=wrap;html=1;" vertex="1" parent="llRQ4Lv7INqdnd3uitMZ-17">
          <mxGeometry y="26" width="200" height="32" as="geometry" />
        </mxCell>
        <mxCell id="llRQ4Lv7INqdnd3uitMZ-19" value="" style="line;strokeWidth=1;fillColor=none;align=left;verticalAlign=middle;spacingTop=-1;spacingLeft=3;spacingRight=3;rotatable=0;labelPosition=right;points=[];portConstraint=eastwest;strokeColor=inherit;" vertex="1" parent="llRQ4Lv7INqdnd3uitMZ-17">
          <mxGeometry y="58" width="200" height="8" as="geometry" />
        </mxCell>
        <mxCell id="llRQ4Lv7INqdnd3uitMZ-20" value="&lt;font style=&quot;font-size: 14px;&quot;&gt;+ Bowl(Fruit)&lt;/font&gt;&lt;div&gt;&lt;span style=&quot;background-color: initial;&quot;&gt;&lt;font size=&quot;3&quot;&gt;+setFruit&lt;/font&gt;&lt;/span&gt;&lt;div&gt;&lt;font size=&quot;3&quot;&gt;+getFruit&lt;/font&gt;&lt;/div&gt;&lt;div&gt;&lt;font size=&quot;3&quot;&gt;+showMessage&lt;/font&gt;&lt;/div&gt;&lt;/div&gt;" style="text;strokeColor=none;fillColor=none;align=left;verticalAlign=top;spacingLeft=4;spacingRight=4;overflow=hidden;rotatable=0;points=[[0,0.5],[1,0.5]];portConstraint=eastwest;whiteSpace=wrap;html=1;" vertex="1" parent="llRQ4Lv7INqdnd3uitMZ-17">
          <mxGeometry y="66" width="200" height="84" as="geometry" />
        </mxCell>
        <mxCell id="llRQ4Lv7INqdnd3uitMZ-21" value="Class Fruit" style="swimlane;fontStyle=1;align=center;verticalAlign=top;childLayout=stackLayout;horizontal=1;startSize=26;horizontalStack=0;resizeParent=1;resizeParentMax=0;resizeLast=0;collapsible=1;marginBottom=0;whiteSpace=wrap;html=1;" vertex="1" parent="1">
          <mxGeometry x="510" y="330" width="200" height="150" as="geometry" />
        </mxCell>
        <mxCell id="llRQ4Lv7INqdnd3uitMZ-22" value="&lt;font style=&quot;font-size: 14px;&quot;&gt;+name: String&lt;/font&gt;" style="text;strokeColor=none;fillColor=none;align=left;verticalAlign=top;spacingLeft=4;spacingRight=4;overflow=hidden;rotatable=0;points=[[0,0.5],[1,0.5]];portConstraint=eastwest;whiteSpace=wrap;html=1;" vertex="1" parent="llRQ4Lv7INqdnd3uitMZ-21">
          <mxGeometry y="26" width="200" height="32" as="geometry" />
        </mxCell>
        <mxCell id="llRQ4Lv7INqdnd3uitMZ-23" value="" style="line;strokeWidth=1;fillColor=none;align=left;verticalAlign=middle;spacingTop=-1;spacingLeft=3;spacingRight=3;rotatable=0;labelPosition=right;points=[];portConstraint=eastwest;strokeColor=inherit;" vertex="1" parent="llRQ4Lv7INqdnd3uitMZ-21">
          <mxGeometry y="58" width="200" height="8" as="geometry" />
        </mxCell>
        <mxCell id="llRQ4Lv7INqdnd3uitMZ-24" value="&lt;span style=&quot;font-size: 14px;&quot;&gt;+Fruit(String name)&lt;/span&gt;&lt;div&gt;&lt;span style=&quot;font-size: 14px;&quot;&gt;+getName()&lt;/span&gt;&lt;/div&gt;&lt;div&gt;&lt;span style=&quot;font-size: 14px;&quot;&gt;+setName()&lt;/span&gt;&lt;/div&gt;&lt;div&gt;&lt;span style=&quot;font-size: 14px;&quot;&gt;message() void&lt;/span&gt;&lt;/div&gt;" style="text;strokeColor=none;fillColor=none;align=left;verticalAlign=top;spacingLeft=4;spacingRight=4;overflow=hidden;rotatable=0;points=[[0,0.5],[1,0.5]];portConstraint=eastwest;whiteSpace=wrap;html=1;" vertex="1" parent="llRQ4Lv7INqdnd3uitMZ-21">
          <mxGeometry y="66" width="200" height="84" as="geometry" />
        </mxCell>
        <mxCell id="llRQ4Lv7INqdnd3uitMZ-25" value="Aggregation" style="rounded=1;whiteSpace=wrap;html=1;" vertex="1" parent="1">
          <mxGeometry x="30" y="375" width="120" height="60" as="geometry" />
        </mxCell>
        <mxCell id="llRQ4Lv7INqdnd3uitMZ-26" value="" style="endArrow=diamondThin;endFill=0;endSize=24;html=1;rounded=0;" edge="1" parent="1" source="llRQ4Lv7INqdnd3uitMZ-21" target="llRQ4Lv7INqdnd3uitMZ-17">
          <mxGeometry width="160" relative="1" as="geometry">
            <mxPoint x="280" y="430" as="sourcePoint" />
            <mxPoint x="440" y="430" as="targetPoint" />
          </mxGeometry>
        </mxCell>
        <mxCell id="llRQ4Lv7INqdnd3uitMZ-27" value="&lt;span style=&quot;color: rgb(0, 0, 0); font-family: Helvetica; font-size: 12px; font-style: normal; font-variant-ligatures: normal; font-variant-caps: normal; font-weight: 400; letter-spacing: normal; orphans: 2; text-align: center; text-indent: 0px; text-transform: none; widows: 2; word-spacing: 0px; -webkit-text-stroke-width: 0px; white-space: nowrap; background-color: rgb(251, 251, 251); text-decoration-thickness: initial; text-decoration-style: initial; text-decoration-color: initial; display: inline !important; float: none;&quot;&gt;-fruit&lt;/span&gt;" style="text;whiteSpace=wrap;html=1;" vertex="1" parent="1">
          <mxGeometry x="460" y="375" width="90" height="40" as="geometry" />
        </mxCell>
        <mxCell id="llRQ4Lv7INqdnd3uitMZ-29" value="Class Library" style="swimlane;fontStyle=1;align=center;verticalAlign=top;childLayout=stackLayout;horizontal=1;startSize=26;horizontalStack=0;resizeParent=1;resizeParentMax=0;resizeLast=0;collapsible=1;marginBottom=0;whiteSpace=wrap;html=1;" vertex="1" parent="1">
          <mxGeometry x="120" y="520" width="270" height="162" as="geometry" />
        </mxCell>
        <mxCell id="llRQ4Lv7INqdnd3uitMZ-30" value="&lt;font style=&quot;font-size: 14px;&quot;&gt;- book: Arraylist&amp;lt;book&amp;gt; //instance field&lt;/font&gt;&lt;div&gt;&lt;font style=&quot;font-size: 14px;&quot;&gt;- name: String&lt;/font&gt;&lt;/div&gt;" style="text;strokeColor=none;fillColor=none;align=left;verticalAlign=top;spacingLeft=4;spacingRight=4;overflow=hidden;rotatable=0;points=[[0,0.5],[1,0.5]];portConstraint=eastwest;whiteSpace=wrap;html=1;" vertex="1" parent="llRQ4Lv7INqdnd3uitMZ-29">
          <mxGeometry y="26" width="270" height="44" as="geometry" />
        </mxCell>
        <mxCell id="llRQ4Lv7INqdnd3uitMZ-31" value="" style="line;strokeWidth=1;fillColor=none;align=left;verticalAlign=middle;spacingTop=-1;spacingLeft=3;spacingRight=3;rotatable=0;labelPosition=right;points=[];portConstraint=eastwest;strokeColor=inherit;" vertex="1" parent="llRQ4Lv7INqdnd3uitMZ-29">
          <mxGeometry y="70" width="270" height="8" as="geometry" />
        </mxCell>
        <mxCell id="llRQ4Lv7INqdnd3uitMZ-32" value="&lt;span style=&quot;font-size: 14px;&quot;&gt;+ library(string name)&lt;/span&gt;&lt;div&gt;&lt;span style=&quot;font-size: 14px;&quot;&gt;+ addBook(Book book)&lt;/span&gt;&lt;/div&gt;&lt;div&gt;&lt;span style=&quot;font-size: 14px;&quot;&gt;+ setName&lt;/span&gt;&lt;/div&gt;&lt;div&gt;&lt;span style=&quot;font-size: 14px;&quot;&gt;+ getName&lt;/span&gt;&lt;/div&gt;" style="text;strokeColor=none;fillColor=none;align=left;verticalAlign=top;spacingLeft=4;spacingRight=4;overflow=hidden;rotatable=0;points=[[0,0.5],[1,0.5]];portConstraint=eastwest;whiteSpace=wrap;html=1;" vertex="1" parent="llRQ4Lv7INqdnd3uitMZ-29">
          <mxGeometry y="78" width="270" height="84" as="geometry" />
        </mxCell>
        <mxCell id="llRQ4Lv7INqdnd3uitMZ-33" value="Class Book" style="swimlane;fontStyle=1;align=center;verticalAlign=top;childLayout=stackLayout;horizontal=1;startSize=26;horizontalStack=0;resizeParent=1;resizeParentMax=0;resizeLast=0;collapsible=1;marginBottom=0;whiteSpace=wrap;html=1;" vertex="1" parent="1">
          <mxGeometry x="530" y="511" width="220" height="180" as="geometry" />
        </mxCell>
        <mxCell id="llRQ4Lv7INqdnd3uitMZ-34" value="&lt;font style=&quot;font-size: 14px;&quot;&gt;+title: String&lt;/font&gt;&lt;div&gt;&lt;font style=&quot;font-size: 14px;&quot;&gt;+author: String&lt;/font&gt;&lt;/div&gt;" style="text;strokeColor=none;fillColor=none;align=left;verticalAlign=top;spacingLeft=4;spacingRight=4;overflow=hidden;rotatable=0;points=[[0,0.5],[1,0.5]];portConstraint=eastwest;whiteSpace=wrap;html=1;" vertex="1" parent="llRQ4Lv7INqdnd3uitMZ-33">
          <mxGeometry y="26" width="220" height="44" as="geometry" />
        </mxCell>
        <mxCell id="llRQ4Lv7INqdnd3uitMZ-35" value="" style="line;strokeWidth=1;fillColor=none;align=left;verticalAlign=middle;spacingTop=-1;spacingLeft=3;spacingRight=3;rotatable=0;labelPosition=right;points=[];portConstraint=eastwest;strokeColor=inherit;" vertex="1" parent="llRQ4Lv7INqdnd3uitMZ-33">
          <mxGeometry y="70" width="220" height="8" as="geometry" />
        </mxCell>
        <mxCell id="llRQ4Lv7INqdnd3uitMZ-36" value="&lt;span style=&quot;font-size: 14px;&quot;&gt;+ Book(String title, String author)&lt;/span&gt;&lt;div&gt;&lt;span style=&quot;font-size: 14px;&quot;&gt;+ setTitle&lt;/span&gt;&lt;/div&gt;&lt;div&gt;&lt;span style=&quot;font-size: 14px;&quot;&gt;+ getTitle&lt;/span&gt;&lt;/div&gt;&lt;div&gt;&lt;span style=&quot;font-size: 14px;&quot;&gt;+ setAuthor&lt;/span&gt;&lt;/div&gt;&lt;div&gt;&lt;span style=&quot;font-size: 14px;&quot;&gt;+ getAuthor&lt;/span&gt;&lt;/div&gt;" style="text;strokeColor=none;fillColor=none;align=left;verticalAlign=top;spacingLeft=4;spacingRight=4;overflow=hidden;rotatable=0;points=[[0,0.5],[1,0.5]];portConstraint=eastwest;whiteSpace=wrap;html=1;" vertex="1" parent="llRQ4Lv7INqdnd3uitMZ-33">
          <mxGeometry y="78" width="220" height="102" as="geometry" />
        </mxCell>
        <mxCell id="llRQ4Lv7INqdnd3uitMZ-37" value="" style="endArrow=diamondThin;endFill=0;endSize=24;html=1;rounded=0;" edge="1" parent="1" source="llRQ4Lv7INqdnd3uitMZ-33" target="llRQ4Lv7INqdnd3uitMZ-29">
          <mxGeometry width="160" relative="1" as="geometry">
            <mxPoint x="520" y="415" as="sourcePoint" />
            <mxPoint x="400" y="415" as="targetPoint" />
          </mxGeometry>
        </mxCell>
        <mxCell id="llRQ4Lv7INqdnd3uitMZ-38" value="&lt;span style=&quot;color: rgb(0, 0, 0); font-family: Helvetica; font-size: 12px; font-style: normal; font-variant-ligatures: normal; font-variant-caps: normal; font-weight: 400; letter-spacing: normal; orphans: 2; text-align: center; text-indent: 0px; text-transform: none; widows: 2; word-spacing: 0px; -webkit-text-stroke-width: 0px; white-space: nowrap; background-color: rgb(251, 251, 251); text-decoration-thickness: initial; text-decoration-style: initial; text-decoration-color: initial; display: inline !important; float: none;&quot;&gt;-book&lt;/span&gt;" style="text;whiteSpace=wrap;html=1;" vertex="1" parent="1">
          <mxGeometry x="470" y="580" width="90" height="40" as="geometry" />
        </mxCell>
        <mxCell id="llRQ4Lv7INqdnd3uitMZ-39" value="Composition" style="rounded=1;whiteSpace=wrap;html=1;" vertex="1" parent="1">
          <mxGeometry x="30" y="840" width="120" height="60" as="geometry" />
        </mxCell>
        <mxCell id="llRQ4Lv7INqdnd3uitMZ-40" value="Class Shirt" style="swimlane;fontStyle=1;align=center;verticalAlign=top;childLayout=stackLayout;horizontal=1;startSize=26;horizontalStack=0;resizeParent=1;resizeParentMax=0;resizeLast=0;collapsible=1;marginBottom=0;whiteSpace=wrap;html=1;" vertex="1" parent="1">
          <mxGeometry x="214" y="780" width="210" height="162" as="geometry" />
        </mxCell>
        <mxCell id="llRQ4Lv7INqdnd3uitMZ-41" value="&lt;font style=&quot;font-size: 14px;&quot;&gt;- Pocket: pocket //instance field&lt;/font&gt;" style="text;strokeColor=none;fillColor=none;align=left;verticalAlign=top;spacingLeft=4;spacingRight=4;overflow=hidden;rotatable=0;points=[[0,0.5],[1,0.5]];portConstraint=eastwest;whiteSpace=wrap;html=1;" vertex="1" parent="llRQ4Lv7INqdnd3uitMZ-40">
          <mxGeometry y="26" width="210" height="44" as="geometry" />
        </mxCell>
        <mxCell id="llRQ4Lv7INqdnd3uitMZ-42" value="" style="line;strokeWidth=1;fillColor=none;align=left;verticalAlign=middle;spacingTop=-1;spacingLeft=3;spacingRight=3;rotatable=0;labelPosition=right;points=[];portConstraint=eastwest;strokeColor=inherit;" vertex="1" parent="llRQ4Lv7INqdnd3uitMZ-40">
          <mxGeometry y="70" width="210" height="8" as="geometry" />
        </mxCell>
        <mxCell id="llRQ4Lv7INqdnd3uitMZ-43" value="&lt;span style=&quot;font-size: 14px;&quot;&gt;+ Shirt()&lt;/span&gt;&lt;div&gt;&lt;span style=&quot;font-size: 14px;&quot;&gt;+ putItem(String): void&lt;/span&gt;&lt;/div&gt;&lt;div&gt;&lt;span style=&quot;font-size: 14px;&quot;&gt;+ showPocketContent(): void&lt;/span&gt;&lt;/div&gt;" style="text;strokeColor=none;fillColor=none;align=left;verticalAlign=top;spacingLeft=4;spacingRight=4;overflow=hidden;rotatable=0;points=[[0,0.5],[1,0.5]];portConstraint=eastwest;whiteSpace=wrap;html=1;" vertex="1" parent="llRQ4Lv7INqdnd3uitMZ-40">
          <mxGeometry y="78" width="210" height="84" as="geometry" />
        </mxCell>
        <mxCell id="llRQ4Lv7INqdnd3uitMZ-44" value="Class Pocket" style="swimlane;fontStyle=1;align=center;verticalAlign=top;childLayout=stackLayout;horizontal=1;startSize=26;horizontalStack=0;resizeParent=1;resizeParentMax=0;resizeLast=0;collapsible=1;marginBottom=0;whiteSpace=wrap;html=1;" vertex="1" parent="1">
          <mxGeometry x="540" y="771" width="220" height="180" as="geometry" />
        </mxCell>
        <mxCell id="llRQ4Lv7INqdnd3uitMZ-45" value="&lt;span style=&quot;font-size: 14px;&quot;&gt;+ content: String&lt;/span&gt;" style="text;strokeColor=none;fillColor=none;align=left;verticalAlign=top;spacingLeft=4;spacingRight=4;overflow=hidden;rotatable=0;points=[[0,0.5],[1,0.5]];portConstraint=eastwest;whiteSpace=wrap;html=1;" vertex="1" parent="llRQ4Lv7INqdnd3uitMZ-44">
          <mxGeometry y="26" width="220" height="44" as="geometry" />
        </mxCell>
        <mxCell id="llRQ4Lv7INqdnd3uitMZ-46" value="" style="line;strokeWidth=1;fillColor=none;align=left;verticalAlign=middle;spacingTop=-1;spacingLeft=3;spacingRight=3;rotatable=0;labelPosition=right;points=[];portConstraint=eastwest;strokeColor=inherit;" vertex="1" parent="llRQ4Lv7INqdnd3uitMZ-44">
          <mxGeometry y="70" width="220" height="8" as="geometry" />
        </mxCell>
        <mxCell id="llRQ4Lv7INqdnd3uitMZ-47" value="&lt;span style=&quot;font-size: 14px;&quot;&gt;+ Pocket()&lt;/span&gt;&lt;div&gt;&lt;span style=&quot;font-size: 14px;&quot;&gt;+ setContent(String): void&lt;/span&gt;&lt;/div&gt;&lt;div&gt;&lt;span style=&quot;font-size: 14px;&quot;&gt;+ displayContent(): void&lt;/span&gt;&lt;/div&gt;" style="text;strokeColor=none;fillColor=none;align=left;verticalAlign=top;spacingLeft=4;spacingRight=4;overflow=hidden;rotatable=0;points=[[0,0.5],[1,0.5]];portConstraint=eastwest;whiteSpace=wrap;html=1;" vertex="1" parent="llRQ4Lv7INqdnd3uitMZ-44">
          <mxGeometry y="78" width="220" height="102" as="geometry" />
        </mxCell>
        <mxCell id="llRQ4Lv7INqdnd3uitMZ-48" value="" style="endArrow=diamondThin;endFill=1;endSize=24;html=1;rounded=0;" edge="1" parent="1" source="llRQ4Lv7INqdnd3uitMZ-44" target="llRQ4Lv7INqdnd3uitMZ-40">
          <mxGeometry width="160" relative="1" as="geometry">
            <mxPoint x="280" y="980" as="sourcePoint" />
            <mxPoint x="440" y="980" as="targetPoint" />
          </mxGeometry>
        </mxCell>
        <mxCell id="llRQ4Lv7INqdnd3uitMZ-49" value="Dependency" style="rounded=1;whiteSpace=wrap;html=1;" vertex="1" parent="1">
          <mxGeometry x="30" y="1030" width="120" height="60" as="geometry" />
        </mxCell>
        <mxCell id="llRQ4Lv7INqdnd3uitMZ-50" value="Class Supplier" style="swimlane;fontStyle=1;align=center;verticalAlign=top;childLayout=stackLayout;horizontal=1;startSize=26;horizontalStack=0;resizeParent=1;resizeParentMax=0;resizeLast=0;collapsible=1;marginBottom=0;whiteSpace=wrap;html=1;" vertex="1" parent="1">
          <mxGeometry x="214" y="990" width="210" height="162" as="geometry" />
        </mxCell>
        <mxCell id="llRQ4Lv7INqdnd3uitMZ-51" value="&lt;font style=&quot;font-size: 14px;&quot;&gt;-&amp;nbsp;&lt;/font&gt;" style="text;strokeColor=none;fillColor=none;align=left;verticalAlign=top;spacingLeft=4;spacingRight=4;overflow=hidden;rotatable=0;points=[[0,0.5],[1,0.5]];portConstraint=eastwest;whiteSpace=wrap;html=1;" vertex="1" parent="llRQ4Lv7INqdnd3uitMZ-50">
          <mxGeometry y="26" width="210" height="44" as="geometry" />
        </mxCell>
        <mxCell id="llRQ4Lv7INqdnd3uitMZ-52" value="" style="line;strokeWidth=1;fillColor=none;align=left;verticalAlign=middle;spacingTop=-1;spacingLeft=3;spacingRight=3;rotatable=0;labelPosition=right;points=[];portConstraint=eastwest;strokeColor=inherit;" vertex="1" parent="llRQ4Lv7INqdnd3uitMZ-50">
          <mxGeometry y="70" width="210" height="8" as="geometry" />
        </mxCell>
        <mxCell id="llRQ4Lv7INqdnd3uitMZ-53" value="&lt;span style=&quot;font-size: 14px;&quot;&gt;provider(): void&lt;/span&gt;" style="text;strokeColor=none;fillColor=none;align=left;verticalAlign=top;spacingLeft=4;spacingRight=4;overflow=hidden;rotatable=0;points=[[0,0.5],[1,0.5]];portConstraint=eastwest;whiteSpace=wrap;html=1;" vertex="1" parent="llRQ4Lv7INqdnd3uitMZ-50">
          <mxGeometry y="78" width="210" height="84" as="geometry" />
        </mxCell>
        <mxCell id="llRQ4Lv7INqdnd3uitMZ-54" value="Class Client" style="swimlane;fontStyle=1;align=center;verticalAlign=top;childLayout=stackLayout;horizontal=1;startSize=26;horizontalStack=0;resizeParent=1;resizeParentMax=0;resizeLast=0;collapsible=1;marginBottom=0;whiteSpace=wrap;html=1;" vertex="1" parent="1">
          <mxGeometry x="545" y="1012" width="210" height="118" as="geometry" />
        </mxCell>
        <mxCell id="llRQ4Lv7INqdnd3uitMZ-56" value="" style="line;strokeWidth=1;fillColor=none;align=left;verticalAlign=middle;spacingTop=-1;spacingLeft=3;spacingRight=3;rotatable=0;labelPosition=right;points=[];portConstraint=eastwest;strokeColor=inherit;" vertex="1" parent="llRQ4Lv7INqdnd3uitMZ-54">
          <mxGeometry y="26" width="210" height="8" as="geometry" />
        </mxCell>
        <mxCell id="llRQ4Lv7INqdnd3uitMZ-57" value="&lt;span style=&quot;font-size: 14px;&quot;&gt;comsume(): void&lt;/span&gt;" style="text;strokeColor=none;fillColor=none;align=left;verticalAlign=top;spacingLeft=4;spacingRight=4;overflow=hidden;rotatable=0;points=[[0,0.5],[1,0.5]];portConstraint=eastwest;whiteSpace=wrap;html=1;" vertex="1" parent="llRQ4Lv7INqdnd3uitMZ-54">
          <mxGeometry y="34" width="210" height="84" as="geometry" />
        </mxCell>
        <mxCell id="llRQ4Lv7INqdnd3uitMZ-58" value="Use" style="endArrow=open;endSize=12;dashed=1;html=1;rounded=0;" edge="1" parent="1" source="llRQ4Lv7INqdnd3uitMZ-50" target="llRQ4Lv7INqdnd3uitMZ-54">
          <mxGeometry width="160" relative="1" as="geometry">
            <mxPoint x="280" y="980" as="sourcePoint" />
            <mxPoint x="440" y="980" as="targetPoint" />
          </mxGeometry>
        </mxCell>
      </root>
    </mxGraphModel>
  </diagram>
</mxfile>
